<svg xmlns="http://www.w3.org/2000/svg" id="Layer_1" viewBox="0 0 1920 1080">
  <defs>
    <style>
      .st0,.st1{fill:#3fa9f5}.st2{fill:none}.st1,.st2{stroke:#3fa9f5;stroke-linecap:round;stroke-miterlimit:10;stroke-width:42px}
    </style>
  </defs>
  <path d="M1127.78 211.6c-9.18-9.18-24.06-9.18-33.23 0l-87.28 87.28V178.85c0-12.98-10.52-23.5-23.5-23.5s-23.5 10.52-23.5 23.5v120.03l-87.28-87.28c-9.18-9.18-24.06-9.18-33.23 0-9.18 9.18-9.18 24.06 0 33.23l120.51 120.51V540c0 12.98 10.52 23.5 23.5 23.5s23.5-10.52 23.5-23.5V365.34l120.51-120.51c9.18-9.18 9.18-24.06 0-33.23" class="st0"/>
  <path d="M1127.78 211.6c-9.18-9.18-24.06-9.18-33.23 0l-87.28 87.28V178.85c0-12.98-10.52-23.5-23.5-23.5s-23.5 10.52-23.5 23.5v120.03l-87.28-87.28c-9.18-9.18-24.06-9.18-33.23 0-9.18 9.18-9.18 24.06 0 33.23l120.51 120.51V540c0 12.98 10.52 23.5 23.5 23.5s23.5-10.52 23.5-23.5V365.34l120.51-120.51c9.18-9.18 9.18-24.06 0-33.23" class="st0"/>
  <path d="M771.37 250.45c-12.54 3.36-19.98 16.25-16.62 28.78l31.95 119.22-103.95-60.01c-11.24-6.49-25.61-2.64-32.1 8.6s-2.64 25.61 8.6 32.1l103.95 60.01-119.22 31.95c-12.54 3.36-19.98 16.25-16.62 28.78 3.36 12.54 16.25 19.98 28.78 16.62l164.62-44.11 151.26 87.33c11.24 6.49 25.61 2.64 32.1-8.6s2.64-25.61-8.6-32.1l-151.26-87.33-44.11-164.62c-3.36-12.54-16.25-19.98-28.78-16.62" class="st0"/>
  <path d="M771.43 251.14c-12.54 3.36-19.98 16.25-16.62 28.78l31.95 119.22-103.95-60.01c-11.24-6.49-25.61-2.64-32.1 8.6s-2.64 25.61 8.6 32.1l103.95 60.01-119.22 31.95c-12.54 3.36-19.98 16.25-16.62 28.78 3.36 12.54 16.25 19.98 28.78 16.62l164.62-44.11 151.26 87.33c11.24 6.49 25.61 2.64 32.1-8.6s2.64-25.61-8.6-32.1l-151.26-87.33-44.11-164.62c-3.36-12.54-16.25-19.98-28.78-16.62" class="st0"/>
  <path d="M627.42 580.33c-3.36 12.54 4.08 25.42 16.62 28.78l119.22 31.95-103.95 60.01c-11.24 6.49-15.09 20.86-8.6 32.1s20.86 15.09 32.1 8.6l103.95-60.01-31.95 119.22c-3.36 12.54 4.08 25.42 16.62 28.78s25.42-4.08 28.78-16.62l44.11-164.62 151.26-87.33c11.24-6.49 15.09-20.86 8.6-32.1s-20.86-15.09-32.1-8.6l-151.26 87.33-164.62-44.11c-12.54-3.36-25.42 4.08-28.78 16.62" class="st0"/>
  <path d="M839.76 869.25c9.18 9.18 24.06 9.18 33.23 0l87.28-87.28V902c0 12.98 10.52 23.5 23.5 23.5s23.5-10.52 23.5-23.5V781.97l87.28 87.28c9.18 9.18 24.06 9.18 33.23 0 9.18-9.18 9.18-24.06 0-33.23l-120.51-120.51V540.85c0-12.98-10.52-23.5-23.5-23.5s-23.5 10.52-23.5 23.5v174.66L839.76 836.02c-9.18 9.18-9.18 24.06 0 33.23" class="st0"/>
  <path d="M1195.9 829.77c12.54-3.36 19.98-16.25 16.62-28.78l-31.95-119.22 103.95 60.01c11.24 6.49 25.61 2.64 32.1-8.6s2.64-25.61-8.6-32.1l-103.95-60.01 119.22-31.95c12.54-3.36 19.98-16.25 16.62-28.78-3.36-12.54-16.25-19.98-28.78-16.62l-164.62 44.11-151.26-87.33c-11.24-6.49-25.61-2.64-32.1 8.6s-2.64 25.61 8.6 32.1l151.26 87.33 44.11 164.62c3.36 12.54 16.25 19.98 28.78 16.62" class="st0"/>
  <path d="M1080.91 493.7v-75.05" class="st1"/>
  <path d="M1080.91 418.17c0-27.64 22.41-50.05 50.05-50.05s50.05 22.41 50.05 50.05" class="st2"/>
  <path d="M1181 493.7v-75.05M1281.09 493.7v-75.05" class="st1"/>
  <path d="M1181 418.17c0-27.64 22.41-50.05 50.05-50.05s50.05 22.41 50.05 50.05" class="st2"/>
</svg>
